<?xml version="1.0" encoding="utf-8"?>
<!-- Generator: Adobe Illustrator 23.0.5, SVG Export Plug-In . SVG Version: 6.00 Build 0)  -->
<svg version="1.1" id="Layer_1" xmlns="http://www.w3.org/2000/svg" xmlns:xlink="http://www.w3.org/1999/xlink" x="0px" y="0px"
	 viewBox="0 0 867.88 867.88" style="enable-background:new 0 0 867.88 867.88;" xml:space="preserve">
<g>
	<g>
		<polygon points="705.43,224.95 584.77,224.95 554.6,172.72 554.6,172.7 554.59,172.7 524.44,120.46 494.27,68.21 464.11,15.98 
			433.94,68.21 403.78,120.46 373.63,172.7 373.61,172.7 343.46,120.46 343.45,120.46 313.28,68.21 283.13,15.98 283.12,15.98 
			252.95,68.21 252.95,68.23 192.62,172.7 162.46,224.95 132.29,277.21 192.62,277.21 222.79,224.95 252.95,172.7 283.12,120.46 
			313.28,172.7 313.28,172.72 343.45,224.95 343.45,224.97 373.61,277.21 403.78,224.95 403.78,224.94 433.94,172.7 464.09,120.46 
			464.11,120.46 494.27,172.7 524.44,224.95 554.6,277.21 675.26,277.21 645.1,329.44 645.1,329.46 614.93,381.7 584.78,433.93 
			584.77,433.93 584.77,433.95 554.6,486.19 524.44,538.44 494.29,590.68 494.27,590.68 464.11,642.93 433.96,695.17 433.94,695.17 
			433.94,695.18 403.79,747.42 373.61,695.17 343.46,642.93 343.45,642.93 313.28,590.68 283.13,538.44 283.12,538.44 
			252.95,486.19 252.95,486.17 222.79,433.93 192.62,381.7 162.46,329.44 102.13,329.44 132.29,381.7 162.46,433.93 192.62,486.19 
			222.79,538.42 222.79,538.44 252.95,590.68 252.95,590.69 313.28,695.17 313.28,695.18 343.45,747.42 373.61,799.67 
			403.78,851.91 433.94,799.66 464.11,747.42 494.27,695.17 524.44,642.93 524.44,642.91 554.6,590.68 584.77,538.44 584.77,538.42 
			614.93,486.19 645.1,433.93 675.26,381.7 705.43,329.44 735.57,277.21 735.59,277.21 765.76,224.95 		"/>
		<path d="M403.78,854.91L99.53,327.94h63.79l240.47,416.48l28.65-49.64v-1.1l0.64-0.01l150.18-260.13v-1.1l0.65-0.01l88.75-153.74
			H553.74L464.1,123.45l-90.49,156.76l-90.5-156.74l-89.63,155.24H129.7L282.25,14.47h1.73l0.45,0.75l89.19,154.49l90.49-156.74
			l91.34,158.23h0.63l0.01,1.11l29.54,51.15h182.72L403.78,854.91z M314.78,694.78l88.99,154.13l359.38-622.45H583.9L464.11,18.97
			L374.5,174.2h-1.73l-0.45-0.75L283.13,18.96L134.89,275.71h56.87l91.36-158.24l90.49,156.74l89.61-155.24h1.73l0.45,0.75
			l90.06,155.99h122.39L403.79,750.42l-242.2-419.48h-56.87l149.73,259.35l60.33,104.47V694.78z"/>
	</g>
	<g>
		<polygon points="494.27,381.7 464.11,433.93 283.12,433.93 313.28,486.19 433.94,486.19 403.78,538.44 343.45,538.44 
			373.61,590.68 403.78,642.93 433.94,590.68 464.11,538.44 464.11,538.42 494.27,486.19 524.44,433.93 554.6,381.7 584.77,329.44 
			524.44,329.44 494.27,277.21 464.11,224.95 433.94,277.21 403.78,329.44 343.45,329.44 313.3,277.21 313.28,277.21 283.12,224.95 
			252.95,277.21 222.79,329.44 192.62,381.7 252.95,381.7 		"/>
		<path d="M403.78,645.93l-62.93-108.99h62.06l28.43-49.25H312.42l-31.9-55.25h182.72l28.43-49.24H190.02l93.09-161.24l61.2,105.99
			h58.6l61.2-105.99l61.2,105.99h62.06L403.78,645.93z M346.05,539.94l57.73,99.99l178.39-308.99h-58.6l-59.46-102.99l-59.46,102.99
			h-62.06l-59.46-102.99l-87.9,152.24h301.65l-31.9,55.24H285.72l28.43,49.25h122.39l-31.9,55.25H346.05z"/>
	</g>
</g>
</svg>
