<svg xmlns="http://www.w3.org/2000/svg" xml:space="preserve" viewBox="0 0 867.88 867.88"><path d="M705.43 224.95H584.77l-30.17-52.23v-.02h-.01l-30.15-52.24-30.17-52.25-30.16-52.23-30.17 52.23-30.16 52.25-30.15 52.24h-.02l-30.15-52.24h-.01l-30.17-52.25-30.15-52.23h-.01l-30.17 52.23v.02L192.62 172.7l-30.16 52.25-30.17 52.26h60.33l30.17-52.26 30.16-52.25 30.17-52.24 30.16 52.24v.02l30.17 52.23v.02l30.16 52.24 30.17-52.26v-.01l30.16-52.24 30.15-52.24h.02l30.16 52.24 30.17 52.25 30.16 52.26h120.66l-30.16 52.23v.02l-30.17 52.24-30.15 52.23h-.01v.02l-30.17 52.24-30.16 52.25-30.15 52.24h-.02l-30.16 52.25-30.15 52.24h-.02v.01l-30.15 52.24-30.18-52.25-30.15-52.24h-.01l-30.17-52.25-30.15-52.24h-.01l-30.17-52.25v-.02l-30.16-52.24-30.17-52.23-30.16-52.26h-60.33l30.16 52.26 30.17 52.23 30.16 52.26 30.17 52.23v.02l30.16 52.24v.01l60.33 104.48v.01l30.17 52.24 30.16 52.25 30.17 52.24 30.16-52.25 30.17-52.24 30.16-52.25 30.17-52.24v-.02l30.16-52.23 30.17-52.24v-.02l30.16-52.23 30.17-52.26 30.16-52.23 30.17-52.26 30.14-52.23h.02l30.17-52.26z"/><path d="M403.78 854.91 99.53 327.94h63.79l240.47 416.48 28.65-49.64v-1.1l.64-.01 150.18-260.13v-1.1l.65-.01 88.75-153.74H553.74L464.1 123.45l-90.49 156.76-90.5-156.74-89.63 155.24H129.7L282.25 14.47h1.73l.45.75 89.19 154.49 90.49-156.74 91.34 158.23h.63l.01 1.11 29.54 51.15h182.72zm-89-160.13 88.99 154.13 359.38-622.45H583.9L464.11 18.97 374.5 174.2h-1.73l-.45-.75-89.19-154.49-148.24 256.75h56.87l91.36-158.24 90.49 156.74 89.61-155.24h1.73l.45.75 90.06 155.99h122.39L403.79 750.42l-242.2-419.48h-56.87l149.73 259.35 60.33 104.47z"/><path d="m494.27 381.7-30.16 52.23H283.12l30.16 52.26h120.66l-30.16 52.25h-60.33l30.16 52.24 30.17 52.25 30.16-52.25 30.17-52.24v-.02l30.16-52.23 30.17-52.26 30.16-52.23 30.17-52.26h-60.33l-30.17-52.23-30.16-52.26-30.17 52.26-30.16 52.23h-60.33l-30.15-52.23h-.02l-30.16-52.26-30.17 52.26-30.16 52.23-30.17 52.26h60.33z"/><path d="m403.78 645.93-62.93-108.99h62.06l28.43-49.25H312.42l-31.9-55.25h182.72l28.43-49.24H190.02l93.09-161.24 61.2 105.99h58.6l61.2-105.99 61.2 105.99h62.06zm-57.73-105.99 57.73 99.99 178.39-308.99h-58.6l-59.46-102.99-59.46 102.99h-62.06l-59.46-102.99-87.9 152.24h301.65l-31.9 55.24H285.72l28.43 49.25h122.39l-31.9 55.25h-58.59z"/></svg>