<?xml version="1.0" encoding="utf-8"?>
<!-- Generator: Adobe Illustrator 23.0.5, SVG Export Plug-In . SVG Version: 6.00 Build 0)  -->
<svg version="1.1" id="Layer_1" xmlns="http://www.w3.org/2000/svg" xmlns:xlink="http://www.w3.org/1999/xlink" x="0px" y="0px"
	 viewBox="0 0 863.19 863.19" style="enable-background:new 0 0 863.19 863.19;" xml:space="preserve">
<style type="text/css">
	.st0{fill:url(#SVGID_1_);}
	.st1{fill:url(#SVGID_2_);}
	.st2{fill:url(#SVGID_3_);}
	.st3{fill:url(#SVGID_4_);}
</style>
<g>
	<g>
		<linearGradient id="SVGID_1_" gradientUnits="userSpaceOnUse" x1="99.7819" y1="431.5959" x2="763.41" y2="431.5959">
			<stop  offset="0.3034" style="stop-color:#000000"/>
			<stop  offset="0.505" style="stop-color:#7A7A7A"/>
			<stop  offset="0.7765" style="stop-color:#000000"/>
		</linearGradient>
		<polygon class="st0" points="703.08,222.61 582.42,222.61 552.26,170.37 552.26,170.35 552.24,170.35 522.09,118.12 491.93,65.87 
			461.76,13.63 431.6,65.87 401.43,118.12 371.28,170.35 371.27,170.35 341.12,118.12 341.1,118.12 310.94,65.87 280.79,13.63 
			280.77,13.63 250.61,65.87 250.61,65.88 190.28,170.35 160.11,222.61 129.95,274.86 190.28,274.86 220.44,222.61 250.61,170.35 
			280.77,118.12 310.94,170.35 310.94,170.37 341.1,222.61 341.1,222.63 371.27,274.86 401.43,222.61 401.43,222.59 431.6,170.35 
			461.74,118.12 461.76,118.12 491.93,170.35 522.09,222.61 552.26,274.86 672.92,274.86 642.75,327.1 642.75,327.11 612.59,379.35 
			582.44,431.59 582.42,431.59 582.42,431.6 552.26,483.84 522.09,536.09 491.94,588.33 491.93,588.33 461.76,640.58 431.61,692.82 
			431.6,692.82 431.6,692.84 401.45,745.07 371.27,692.82 341.12,640.58 341.1,640.58 310.94,588.33 280.79,536.09 280.77,536.09 
			250.61,483.84 250.61,483.82 220.44,431.59 190.28,379.35 160.11,327.1 99.78,327.1 129.95,379.35 160.11,431.59 190.28,483.84 
			220.44,536.08 220.44,536.09 250.61,588.33 250.61,588.35 310.94,692.82 310.94,692.84 341.1,745.07 371.27,797.33 401.43,849.56 
			431.6,797.31 461.76,745.07 491.93,692.82 522.09,640.58 522.09,640.57 552.26,588.33 582.42,536.09 582.42,536.08 612.59,483.84 
			642.75,431.59 672.92,379.35 703.08,327.1 733.23,274.86 733.25,274.86 763.41,222.61 		"/>
		<linearGradient id="SVGID_2_" gradientUnits="userSpaceOnUse" x1="97.1838" y1="431.5959" x2="766.0081" y2="431.5959">
			<stop  offset="0.3034" style="stop-color:#000000"/>
			<stop  offset="0.505" style="stop-color:#7A7A7A"/>
			<stop  offset="0.7765" style="stop-color:#000000"/>
		</linearGradient>
		<path class="st1" d="M401.43,852.56L97.18,325.6h63.79l240.47,416.48l28.65-49.64v-1.1l0.64-0.01L580.92,431.2v-1.1l0.65-0.01
			l88.75-153.74H551.39L461.75,121.1l-90.49,156.76l-90.5-156.74l-89.63,155.24h-63.79L279.91,12.13h1.73l0.45,0.75l89.19,154.49
			l90.49-156.74l91.34,158.23h0.63l0.01,1.11l29.54,51.15h182.72L401.43,852.56z M312.44,692.43l88.99,154.13l359.38-622.45H581.55
			L461.76,16.63l-89.61,155.23h-1.73l-0.45-0.75L280.78,16.61L132.54,273.36h56.87l91.36-158.24l90.49,156.74l89.61-155.24h1.73
			l0.45,0.75l90.06,155.99h122.39L401.45,748.07L159.25,328.6h-56.87l149.73,259.35l60.33,104.47V692.43z"/>
	</g>
	<g>
		<linearGradient id="SVGID_3_" gradientUnits="userSpaceOnUse" x1="190.2766" y1="431.5959" x2="582.4205" y2="431.5959">
			<stop  offset="0.3034" style="stop-color:#000000"/>
			<stop  offset="0.505" style="stop-color:#7A7A7A"/>
			<stop  offset="0.7765" style="stop-color:#000000"/>
		</linearGradient>
		<polygon class="st2" points="491.93,379.35 461.76,431.59 280.77,431.59 310.94,483.84 431.6,483.84 401.43,536.09 341.1,536.09 
			371.27,588.33 401.43,640.58 431.6,588.33 461.76,536.09 461.76,536.08 491.93,483.84 522.09,431.59 552.26,379.35 582.42,327.1 
			522.09,327.1 491.93,274.86 461.76,222.61 431.6,274.86 401.43,327.1 341.1,327.1 310.95,274.86 310.94,274.86 280.77,222.61 
			250.61,274.86 220.44,327.1 190.28,379.35 250.61,379.35 		"/>
		<linearGradient id="SVGID_4_" gradientUnits="userSpaceOnUse" x1="187.6785" y1="431.5955" x2="585.0178" y2="431.5955">
			<stop  offset="0.3034" style="stop-color:#000000"/>
			<stop  offset="0.505" style="stop-color:#7A7A7A"/>
			<stop  offset="0.7765" style="stop-color:#000000"/>
		</linearGradient>
		<path class="st3" d="M401.43,643.58L338.5,534.59h62.06L429,485.34H310.07l-31.9-55.25h182.72l28.43-49.24H187.68l93.09-161.24
			l61.2,105.99h58.6l61.2-105.99l61.2,105.99h62.06L401.43,643.58z M343.7,537.59l57.73,99.99L579.82,328.6h-58.6l-59.46-102.99
			L402.3,328.6h-62.06l-59.46-102.99l-87.9,152.24h301.65l-31.9,55.24H283.37l28.43,49.25h122.39l-31.9,55.25H343.7z"/>
	</g>
</g>
</svg>
